<?xml version="1.0" standalone="no"?>
<!DOCTYPE svg PUBLIC "-//W3C//DTD SVG 20010904//EN"
 "http://www.w3.org/TR/2001/REC-SVG-20010904/DTD/svg10.dtd">
<svg version="1.0" xmlns="http://www.w3.org/2000/svg"
 width="101.000000pt" height="101.000000pt" viewBox="0 0 101.000000 101.000000"
 preserveAspectRatio="xMidYMid meet">
<metadata>
Created by potrace 1.14, written by Peter Selinger 2001-2017
</metadata>
<g transform="translate(0.000000,101.000000) scale(0.100000,-0.100000)"
fill="#000000" stroke="none">
<path d="M60 745 c0 -24 2 -25 75 -25 73 0 75 1 75 25 0 24 -2 25 -75 25 -73
0 -75 -1 -75 -25z"/>
<path d="M383 675 c-84 -42 -133 -123 -133 -218 0 -67 15 -111 52 -159 144
-184 441 -79 441 156 0 142 -105 246 -249 246 -45 0 -73 -7 -111 -25z m176
-20 c74 -38 44 -130 -46 -142 -65 -9 -123 32 -123 85 0 11 14 32 31 46 35 30
93 35 138 11z m-189 -105 c24 -24 24 -30 7 -54 -9 -12 -23 -17 -42 -14 -25 2
-31 8 -33 33 -3 19 2 33 14 42 24 17 30 17 54 -7z"/>
<path d="M757 675 c17 -23 73 -37 73 -17 -1 21 -30 42 -59 42 l-32 0 18 -25z"/>
</g>
</svg>
