<?xml version="1.0" standalone="no"?>
<!DOCTYPE svg PUBLIC "-//W3C//DTD SVG 20010904//EN"
 "http://www.w3.org/TR/2001/REC-SVG-20010904/DTD/svg10.dtd">
<svg version="1.0" xmlns="http://www.w3.org/2000/svg"
 width="500.000000pt" height="500.000000pt" viewBox="0 0 500.000000 500.000000"
 preserveAspectRatio="xMidYMid meet">
<metadata>
Created by potrace 1.14, written by Peter Selinger 2001-2017
</metadata>
<g transform="translate(0.000000,500.000000) scale(0.100000,-0.100000)"
fill="#000000" stroke="none">
<path d="M0 2500 l0 -2500 2500 0 2500 0 0 2500 0 2500 -2500 0 -2500 0 0
-2500z m1436 1559 c2 -4 -53 -101 -122 -215 l-126 -208 18 -36 c10 -19 45 -80
78 -135 123 -209 135 -231 146 -255 15 -35 36 -70 49 -83 12 -12 28 4 53 53 7
14 42 75 79 135 55 91 185 310 224 378 5 9 49 83 96 165 48 81 94 162 104 180
l17 34 1116 -5 c849 -3 1126 -7 1156 -17 24 -7 61 -34 96 -68 65 -66 85 -118
78 -209 -4 -60 -38 -131 -138 -292 -22 -34 -40 -65 -40 -67 0 -2 -31 -54 -69
-116 -37 -62 -107 -178 -154 -258 -47 -80 -98 -157 -114 -172 -65 -62 -178
-97 -315 -98 -27 0 -48 -4 -48 -8 0 -5 18 -21 39 -38 42 -31 91 -113 91 -152
0 -48 -40 -84 -125 -112 -22 -7 -68 -28 -103 -46 -36 -19 -67 -34 -69 -34 -2
0 6 18 17 40 24 47 24 50 6 50 -12 0 -131 -193 -471 -765 -40 -66 -134 -224
-210 -352 -76 -128 -141 -230 -145 -228 -4 3 -14 -3 -21 -13 -13 -15 -12 -16
4 -3 30 24 19 -7 -18 -48 -20 -21 -57 -49 -82 -61 -80 -38 -206 -17 -264 44
-20 21 -248 406 -386 654 -41 72 -63 102 -76 102 -12 0 -17 6 -15 18 2 10 12
17 26 16 20 -1 22 3 17 23 -7 28 31 106 48 100 11 -4 15 -40 6 -62 -5 -13 207
-390 230 -407 13 -10 13 -9 -1 8 -20 23 -23 40 -7 49 12 8 49 -23 49 -42 0
-22 22 -15 69 25 88 72 85 70 77 42 -4 -14 16 13 45 60 29 47 52 93 51 104 0
10 2 16 5 12 9 -9 35 32 28 44 -4 6 -1 9 7 8 7 -2 13 4 13 12 0 8 7 21 15 28
8 8 9 11 2 7 -7 -4 -1 16 13 44 15 28 31 49 35 46 5 -3 12 0 16 6 5 8 3 9 -6
4 -21 -13 -9 10 121 238 127 223 144 247 166 247 7 0 13 5 13 10 0 6 -4 10
-10 10 -16 0 -12 37 5 43 12 5 12 10 0 34 -9 16 -15 55 -15 91 0 72 -23 130
-74 185 -22 24 -43 37 -59 37 -14 0 -29 5 -32 10 -3 6 -15 10 -26 10 -10 0
-19 5 -19 11 0 8 28 10 98 6 120 -6 186 5 279 48 77 35 144 91 197 164 31 42
136 209 136 215 0 2 43 74 95 161 52 87 95 160 95 161 0 1 18 31 40 65 73 117
86 173 50 209 -23 23 -24 23 -233 17 -116 -4 -262 -7 -326 -7 l-116 0 -120
-201 c-66 -110 -129 -216 -140 -234 -11 -19 -69 -117 -130 -217 -60 -101 -115
-192 -121 -203 -6 -11 -68 -114 -139 -230 -70 -115 -137 -225 -147 -244 -11
-19 -34 -57 -52 -85 -17 -28 -37 -62 -43 -76 -7 -14 -26 -47 -43 -75 -17 -27
-36 -60 -42 -72 -6 -13 -14 -23 -18 -23 -4 0 -15 30 -24 68 -9 37 -27 102 -38
146 l-22 79 23 42 c38 71 54 84 95 75 48 -11 116 5 150 35 16 14 24 25 17 25
-8 0 -10 11 -7 35 4 20 2 35 -4 35 -6 0 -10 -4 -10 -10 0 -5 -5 -10 -11 -10
-6 0 -25 -11 -42 -24 -35 -26 -107 -59 -115 -52 -4 4 135 252 231 411 42 69
174 300 203 354 26 48 26 69 0 27 -9 -14 -24 -38 -33 -54 -57 -91 -173 -286
-173 -290 0 -3 -11 -20 -25 -38 -14 -18 -25 -35 -25 -39 0 -3 -25 -47 -56 -98
-81 -132 -355 -588 -369 -612 -60 -109 -79 -136 -93 -133 -14 3 -47 56 -218
353 -26 44 -54 94 -64 110 -10 17 -41 71 -70 120 -29 50 -62 106 -73 125 -11
19 -28 50 -38 68 -10 18 -22 38 -27 45 -5 7 -19 29 -31 50 -12 20 -31 54 -43
75 -12 20 -29 51 -38 68 -9 16 -25 43 -36 60 -12 16 -23 34 -25 39 -11 27 -72
125 -84 135 -8 7 -15 17 -15 23 0 5 -11 25 -25 43 -14 18 -25 36 -25 39 0 4
-10 21 -22 38 -12 17 -29 45 -38 61 -9 17 -26 47 -37 66 -57 97 -128 219 -145
249 -10 18 -26 40 -34 48 -7 8 -14 19 -14 25 0 11 939 8 946 -3z m728 -2105
c11 -30 6 -34 -42 -34 -58 0 -68 7 -45 32 20 23 78 24 87 2z"/>
<path d="M4027 3413 c-30 -49 -83 -136 -118 -196 -35 -59 -91 -153 -124 -209
-46 -76 -71 -109 -106 -133 -57 -39 -162 -72 -249 -79 -36 -3 -66 -5 -67 -6
-2 0 -3 -7 -3 -15 0 -21 146 -21 186 0 16 8 36 15 45 15 8 0 47 20 85 44 58
38 74 55 103 108 36 67 160 284 217 380 19 31 34 61 34 67 0 6 3 11 8 11 7 0
24 31 42 78 17 41 2 23 -53 -65z"/>
<path d="M1020 3477 c0 -6 66 -129 143 -265 46 -81 99 -176 118 -211 19 -36
41 -72 50 -82 16 -16 19 -14 48 27 30 43 40 74 24 74 -7 0 -110 89 -136 117
-19 20 -82 122 -113 181 -19 37 -42 74 -50 84 -9 9 -14 23 -11 30 8 24 -13 48
-43 48 -17 0 -30 -1 -30 -3z"/>
<path d="M3485 2706 c-10 -18 -30 -41 -44 -50 -15 -10 -18 -15 -8 -12 10 3 24
6 31 6 13 0 53 76 44 85 -3 3 -13 -10 -23 -29z"/>
<path d="M3556 2672 c-29 -56 -45 -76 -67 -84 -33 -11 -42 -43 -9 -33 15 5 20
2 20 -11 0 -29 25 1 65 80 21 41 35 83 33 97 -2 20 -10 11 -42 -49z"/>
<path d="M1970 1574 c0 -5 7 -18 15 -28 8 -11 15 -16 15 -10 0 5 -7 18 -15 28
-8 11 -15 16 -15 10z"/>
<path d="M2020 1488 c0 -6 15 -31 58 -94 7 -11 4 -1 -7 21 -20 42 -50 85 -51
73z"/>
<path d="M2090 1362 c0 -4 4 -12 9 -17 5 -6 20 -30 33 -55 58 -105 130 -226
140 -235 9 -9 -32 74 -57 114 -5 9 -34 58 -63 109 -51 87 -62 103 -62 84z"/>
</g>
</svg>
